# xmcd
# 
# Track frame offsets:
#     150
#     19927
#     54964
#     72977
#     97940
#     128925
#     147955
#     165782
#     198400
#     216822
#     239160
#     271735
# 
# Disc length: 4280
# 
# Revision: 5
# Processed by: cddbd v1.5.2PL0 Copyright (c) Steve Scherf et al.
# Submitted via: fre:ac v1.0.17
# 
DISCID=a710b60c
DTITLE=Hank Shizzoe - In Concert - Set 1
DYEAR=2003
DGENRE=Blues
TTITLE0=Bebopthing
TTITLE1=Southern Movements
TTITLE2=Arrows Through My Heart
TTITLE3=Low Budget
TTITLE4=Handmade Love
TTITLE5=Indian Girl
TTITLE6=Cought Asleep
TTITLE7=The Whole Book
TTITLE8=Waltz No. 1
TTITLE9=Serious Shopping
TTITLE10=8000 Miles To New Orleans
TTITLE11=Daten-CD
EXTD=In Concert\nHank Shizzoe: Vocals, Guitar, Bouzouki\nMichel Poffet: Upright Bass\n Christoph Beck: Drums, Vocals
EXTT0=
EXTT1=
EXTT2=
EXTT3=
EXTT4=
EXTT5=
EXTT6=
EXTT7=
EXTT8=
EXTT9=
EXTT10=
EXTT11=
PLAYORDER=
